<svg xmlns="http://www.w3.org/2000/svg" width="36" height="36" viewBox="0 0 36 36" fill="none"><path fill-rule="evenodd" clip-rule="evenodd" d="M10.7544 1.875H25.2457C26.0469 1.87498 26.7157 1.87497 27.2621 1.91961C27.8319 1.96617 28.3669 2.06683 28.8728 2.3246C29.6489 2.72008 30.28 3.35112 30.6755 4.12729C30.9332 4.63318 31.0339 5.16817 31.0805 5.738C31.1251 6.28434 31.1251 6.9531 31.1251 7.75432V8.81625C31.1251 8.8473 31.1251 8.87797 31.1251 8.90827C31.1254 9.44299 31.1256 9.86412 31.0408 10.277C30.9661 10.641 30.8425 10.9934 30.6734 11.3243C30.4817 11.6996 30.2185 12.0284 29.8842 12.4458C29.8653 12.4694 29.8461 12.4933 29.8267 12.5176L24.2205 19.5253C27.4666 22.9023 27.4261 28.2716 24.0989 31.5988C20.7306 34.9671 15.2695 34.9671 11.9013 31.5988C8.57405 28.2716 8.53349 22.9023 11.7796 19.5253L6.17341 12.5176C6.15402 12.4933 6.13485 12.4694 6.11591 12.4457C5.78166 12.0284 5.51842 11.6996 5.32668 11.3243C5.15759 10.9934 5.034 10.641 4.95928 10.277C4.87455 9.86412 4.87476 9.44299 4.87503 8.90825C4.87504 8.87796 4.87506 8.8473 4.87506 8.81625L4.87506 7.75435C4.87504 6.95312 4.87503 6.28435 4.91967 5.738C4.96623 5.16817 5.06689 4.63318 5.32466 4.12729C5.72014 3.35112 6.35118 2.72008 7.12735 2.3246C7.63324 2.06683 8.16823 1.96617 8.73805 1.91961C9.2844 1.87497 9.95318 1.87498 10.7544 1.875ZM13.5353 18.1182C14.2799 17.667 15.0781 17.3386 15.9006 17.1331L7.16395 5.90018C7.16336 5.90713 7.16277 5.91414 7.1622 5.92122C7.12593 6.36504 7.12506 6.94136 7.12506 7.8V8.81625C7.12506 9.48537 7.13037 9.66394 7.16334 9.82461C7.19731 9.99011 7.25348 10.1502 7.33034 10.3007C7.40497 10.4468 7.51237 10.5895 7.93037 11.112L13.5353 18.1182ZM8.68212 4.18725L18.0001 16.1676L27.318 4.18725C27.247 4.17783 27.1677 4.1694 27.0788 4.16214C26.635 4.12588 26.0587 4.125 25.2001 4.125H10.8001C9.94142 4.125 9.3651 4.12588 8.92128 4.16214C8.83245 4.1694 8.75318 4.17783 8.68212 4.18725ZM28.8362 5.9002L20.0996 17.1331C20.9221 17.3387 21.7202 17.667 22.4648 18.1182L28.0698 11.112C28.4877 10.5895 28.5952 10.4468 28.6698 10.3007C28.7466 10.1502 28.8028 9.99011 28.8368 9.82462C28.8698 9.66394 28.8751 9.48537 28.8751 8.81625V7.8C28.8751 6.94136 28.8742 6.36504 28.8379 5.92122C28.8373 5.91415 28.8368 5.90715 28.8362 5.9002ZM22.5079 30.0078C24.9975 27.5182 24.9975 23.4818 22.5079 20.9922C20.0183 18.5026 15.9818 18.5026 13.4922 20.9922C11.0027 23.4818 11.0027 27.5182 13.4922 30.0078C15.9819 32.4974 20.0183 32.4974 22.5079 30.0078Z" fill="white"></path></svg>