<svg xmlns="http://www.w3.org/2000/svg" width="64" height="64" viewBox="0 0 64 64" fill="none"><path d="M28.6695 29.5998C28.6695 29.5998 36.2666 33.8851 39.5959 36.5298C42.9251 39.1745 32.5801 42.8286 32.5801 42.8286L27.7922 41.4661L28.6695 29.5998Z" fill="#125AC4"></path><path d="M30.6245 58.8514C31.4779 53.5374 34.1777 34.4278 29.6227 30.2134C26.6542 27.4669 11.0672 27.3079 7.93329 31.4057C5.14834 35.0472 7.82172 53.6189 8.64247 58.8514H30.6245Z" fill="#2D77FC"></path><path d="M9.59605 30.0905C9.59605 30.0905 5.57123 31.1882 3.06011 37.5048C1.78532 40.7115 0.502737 51.4205 5.23671 52.3544C9.97068 53.2883 21.4946 41 21.4946 41C21.4946 41 20.3211 37.3991 20.1742 36.8779C20.1305 36.7229 10.486 40.5707 10.486 40.5707C10.486 40.5707 13.631 31.2811 9.59605 30.0905Z" fill="#125AC4"></path><path d="M29.2324 44.8193H44.9954C46.0175 44.8193 46.8461 43.9907 46.8461 42.9687H29.2324V44.8193Z" fill="#EFF6FF"></path><path d="M29.8236 44.8193H23.0703C22.5782 44.8193 22.1792 44.4204 22.1792 43.9283V43.8597C22.1792 43.3676 22.5782 42.9687 23.0703 42.9687H29.8236C30.3347 42.9687 30.7489 43.3829 30.7489 43.894C30.7489 44.405 30.3347 44.8193 29.8236 44.8193Z" fill="#D9E5F1"></path><path d="M51.1248 32.0619L46.8461 42.9687L29.8715 42.9696L34.9261 30.09H49.7802C50.7979 30.09 51.4965 31.1144 51.1248 32.0619Z" fill="#D9E5F1"></path><path d="M34.9261 30.09L29.8715 42.9696H28.6695L33.3622 31.0069C33.5792 30.4538 34.1127 30.09 34.7069 30.09H34.9261Z" fill="#EFF6FF"></path><path d="M45.3424 49.0165C43.6514 51.4575 40.5488 51.4176 38.4355 50.4303C37.6121 50.048 33.1629 45.8803 33.1629 45.8803L33.3708 44.8194H45.0379C45.0379 44.8194 47.0355 46.5735 45.3424 49.0165Z" fill="#125AC4"></path><path d="M33.3708 44.8194L33.1629 45.8803C33.1629 45.8803 28.0583 46.6701 28.2789 44.8194H33.3708Z" fill="#F9B29C"></path><path d="M41.8346 38.8445C42.4565 37.7925 42.4974 36.6659 41.926 36.3281C41.3546 35.9903 40.3872 36.5692 39.7653 37.6212C39.1434 38.6732 39.1025 39.7998 39.6739 40.1376C40.2453 40.4754 41.2127 39.8964 41.8346 38.8445Z" fill="#EFF6FF"></path><path d="M25.9637 40.2699C24.8629 40.3056 24.8755 39.1061 24.8755 39.1061C24.8755 39.1061 22.9429 40.8959 21.4956 41.0156L20.1743 36.8942C20.1743 36.8942 21.6069 33.9322 22.2875 34.8355C22.9345 35.6947 21.8023 36.3627 21.6889 36.4278C21.9031 36.3606 25.5498 34.9445 26.3946 37.5292C26.3946 37.5292 27.0665 40.2321 25.9637 40.2699Z" fill="#F9B29C"></path><path d="M23.8577 31.7745C17.2819 32.9311 15.6524 28.4769 15.6524 28.4769C20.2279 25.7175 18.1232 20.5941 18.1232 20.5941C18.1232 20.5941 18.2687 20.5746 18.5039 20.5698C18.5451 20.5674 18.5912 20.5674 18.6397 20.5674C19.6993 20.5674 22.0465 20.8899 22.3593 23.7292C22.5169 25.172 22.9412 26.217 23.3922 26.9566C23.431 27.022 23.4722 27.0827 23.5134 27.1433C24.1778 28.1423 24.8713 28.5036 24.8713 28.5036C24.8713 28.5036 28.0477 31.0374 23.8577 31.7745Z" fill="#F9B29C"></path><path d="M23.5134 27.1433C20.0436 26.7917 18.8507 22.3981 18.5039 20.5698C18.5451 20.5674 18.5912 20.5674 18.6397 20.5674C19.6993 20.5674 22.0465 20.8899 22.3593 23.7292C22.5169 25.172 22.9412 26.217 23.3922 26.9566C23.431 27.022 23.4722 27.0827 23.5134 27.1433Z" fill="#ED8768"></path><path d="M17.8027 18.9791C17.8027 18.9791 18.7241 26.8026 24.8883 26.5962C30.1622 26.4195 29.143 13.5927 29.143 13.5927L18.844 9.93252C18.844 9.93252 14.9065 15.5622 17.8027 18.9791Z" fill="#F9B29C"></path><path d="M17.8458 24.0945C19.7056 25.5133 17.8013 18.98 17.8013 18.98C17.8013 18.98 16.639 16.2005 17.5586 15.6022C18.4783 15.0073 19.0219 17.7321 19.0219 17.7321C19.1176 17.7697 19.2168 17.7834 19.3125 17.7834C19.7603 17.7834 20.157 17.4176 20.1364 16.9355C20.0885 15.6501 20.0304 14.9971 20.0612 14.9321C20.8202 13.356 28.9846 18.3441 31.5385 15.6288C35.6872 11.2178 32.8658 5.67382 26.5638 5.23635C24.6579 5.10405 20.5124 8.10472 18.598 8.63123C15.9896 7.47384 14.213 9.64133 13.259 12.0557C11.6655 16.0884 15.4048 22.2313 17.8458 24.0945Z" fill="#15144F"></path><path d="M23.5674 18.8226C23.5093 18.7939 23.4854 18.7232 23.5141 18.6651C23.6503 18.3898 23.6585 18.0574 23.5362 17.7759C23.3499 17.3465 22.9538 17.2251 22.5215 17.7723C22.3056 18.0457 22.1381 18.3513 22.023 18.6807C22.0019 18.7422 21.9344 18.7753 21.8736 18.753C21.8123 18.7317 21.7797 18.6649 21.8013 18.6036C21.9245 18.2491 22.1048 17.9206 22.3369 17.6267C22.8816 16.9365 23.4963 17.0934 23.752 17.6823C23.9014 18.0264 23.8913 18.4328 23.7249 18.7693C23.6965 18.8268 23.6261 18.8515 23.5674 18.8226Z" fill="#15144F"></path><path d="M25.991 20.7001C25.5769 19.7193 25.5369 18.5788 25.8815 17.5714C25.9024 17.5101 25.9692 17.4773 26.0308 17.4984C26.0921 17.5193 26.1249 17.5861 26.1038 17.6476C25.7778 18.601 25.8157 19.6803 26.2078 20.6087C26.233 20.6684 26.205 20.7375 26.1451 20.7627C26.0842 20.788 26.0161 20.7591 25.991 20.7001Z" fill="#15144F"></path><path d="M28.0593 19.0329C28.13 18.6959 28.0657 18.3352 27.8828 18.0436C27.8001 17.9121 27.6615 17.7757 27.5221 17.7959C27.4376 17.8069 27.352 17.8717 27.2604 17.9943C27.0666 18.2532 26.9505 18.5737 26.9332 18.8967C26.93 18.9615 26.8761 19.0184 26.8097 19.0079C26.745 19.0044 26.6952 18.9491 26.6986 18.8843C26.7181 18.5152 26.8508 18.1492 27.0721 17.8533C27.2039 17.6775 27.341 17.5824 27.4918 17.5627C27.7048 17.5356 27.9248 17.6685 28.082 17.9187C28.2969 18.2615 28.3725 18.6851 28.2893 19.0811C28.2742 19.1525 28.2161 19.1801 28.1616 19.1736C28.0995 19.1662 28.0422 19.1145 28.0593 19.0329Z" fill="#15144F"></path><path d="M23.9104 23.5693C23.577 23.5262 23.2561 23.3593 23.0297 23.1113C22.9859 23.0633 22.9893 22.989 23.0373 22.9453C23.0853 22.9013 23.1597 22.9049 23.2033 22.9529C23.3927 23.1604 23.6615 23.3 23.9405 23.3361C24.2187 23.3717 24.5149 23.3046 24.7506 23.152C24.8046 23.1173 24.8778 23.132 24.9132 23.1868C24.9483 23.2413 24.9329 23.314 24.8783 23.3494C24.5956 23.5324 24.2421 23.6121 23.9104 23.5693Z" fill="#15144F"></path><path d="M62.1176 16.6722V23.7068C62.1176 24.0836 61.8134 24.3901 61.4343 24.3901H48.5609L46.2395 25.3168C46.0569 25.3894 45.8557 25.2537 45.8557 25.0571V24.3901H44.8611C44.4843 24.3901 44.1778 24.0836 44.1778 23.7068V16.6722C44.1778 16.2954 44.4843 15.9889 44.8611 15.9889H61.4343C61.8134 15.9889 62.1176 16.2954 62.1176 16.6722Z" fill="#EFF6FF"></path><path d="M50.5583 20.4326C50.5583 21.7724 49.4711 22.8565 48.1314 22.8565C46.7916 22.8565 45.7075 21.7724 45.7075 20.4326C45.7075 19.0929 46.7916 18.0057 48.1314 18.0057C49.4711 18.0057 50.5583 19.0929 50.5583 20.4326Z" fill="#03C88B"></path><path d="M47.5655 19.6202C47.5655 19.3059 47.8197 19.0517 48.134 19.0517C48.4462 19.0517 48.7003 19.3059 48.7003 19.6202C48.7003 19.9324 48.4462 20.1866 48.134 20.1866C47.8197 20.1866 47.5655 19.9324 47.5655 19.6202Z" fill="white"></path><path d="M49.4255 21.6614H46.8403C46.8526 20.9554 47.4258 20.3872 48.1341 20.3872C48.8401 20.3872 49.4132 20.9554 49.4255 21.6614Z" fill="white"></path><path d="M53.0247 17.76L53.3268 18.372C53.3536 18.4263 53.4054 18.464 53.4653 18.4727L54.1408 18.5708C54.2917 18.5928 54.3519 18.7782 54.2427 18.8847L53.754 19.3611C53.7106 19.4034 53.6908 19.4643 53.7011 19.5239L53.8164 20.1966C53.8422 20.3469 53.6845 20.4616 53.5495 20.3906L52.9454 20.073C52.8918 20.0448 52.8277 20.0448 52.7741 20.073L52.17 20.3906C52.035 20.4616 51.8773 20.3469 51.903 20.1966L52.0184 19.5239C52.0286 19.4643 52.0089 19.4034 51.9655 19.3611L51.4768 18.8847C51.3675 18.7782 51.4278 18.5928 51.5787 18.5708L52.2541 18.4727C52.3141 18.464 52.3659 18.4263 52.3927 18.372L52.6947 17.76C52.7622 17.6233 52.9572 17.6233 53.0247 17.76Z" fill="#FEB630"></path><path d="M56.4346 17.76L56.7367 18.372C56.7635 18.4263 56.8153 18.464 56.8752 18.4727L57.5506 18.5708C57.7016 18.5928 57.7618 18.7782 57.6526 18.8847L57.1639 19.3611C57.1205 19.4034 57.1007 19.4643 57.111 19.5239L57.2263 20.1966C57.2521 20.3469 57.0943 20.4616 56.9594 20.3906L56.3553 20.073C56.3016 20.0448 56.2376 20.0448 56.184 20.073L55.5799 20.3906C55.4449 20.4616 55.2871 20.3469 55.3129 20.1966L55.4283 19.5239C55.4385 19.4643 55.4187 19.4034 55.3754 19.3611L54.8866 18.8847C54.7774 18.7782 54.8377 18.5928 54.9886 18.5708L55.664 18.4727C55.724 18.464 55.7758 18.4263 55.8026 18.372L56.1046 17.76C56.1721 17.6233 56.3671 17.6233 56.4346 17.76Z" fill="#FEB630"></path><path d="M59.8445 17.76L60.1466 18.372C60.1734 18.4263 60.2252 18.464 60.2851 18.4727L60.9605 18.5708C61.1114 18.5928 61.1717 18.7782 61.0625 18.8847L60.5738 19.3611C60.5304 19.4034 60.5106 19.4643 60.5209 19.5239L60.6362 20.1966C60.662 20.3469 60.5042 20.4616 60.3692 20.3906L59.7651 20.073C59.7115 20.0448 59.6475 20.0448 59.5939 20.073L58.9898 20.3906C58.8548 20.4616 58.697 20.3469 58.7228 20.1966L58.8382 19.5239C58.8484 19.4643 58.8286 19.4034 58.7853 19.3611L58.2965 18.8847C58.1873 18.7782 58.2476 18.5928 58.3985 18.5708L59.0739 18.4727C59.1339 18.464 59.1857 18.4263 59.2125 18.372L59.5145 17.76C59.582 17.6233 59.777 17.6233 59.8445 17.76Z" fill="#FEB630"></path><path d="M51.6037 21.329H61.1539V21.8353H51.6037V21.329Z" fill="#D9E5F1"></path><path d="M51.6037 22.288H56.2371V22.7944H51.6037V22.288Z" fill="#D9E5F1"></path><path d="M35.8348 5.83201V12.8666C35.8348 13.2434 36.139 13.5499 36.5181 13.5499H49.3915L51.7129 14.4766C51.8955 14.5492 52.0967 14.4135 52.0967 14.2169V13.5499H53.0913C53.4681 13.5499 53.7746 13.2434 53.7746 12.8666V5.83201C53.7746 5.45525 53.4681 5.14868 53.0913 5.14868H36.5181C36.139 5.14868 35.8348 5.45525 35.8348 5.83201Z" fill="#EFF6FF"></path><path d="M47.3941 9.59243C47.3941 10.9322 48.4813 12.0163 49.821 12.0163C51.1608 12.0163 52.2449 10.9322 52.2449 9.59243C52.2449 8.25268 51.1608 7.16547 49.821 7.16547C48.4813 7.16547 47.3941 8.25268 47.3941 9.59243Z" fill="#F14E9D"></path><path d="M50.3869 8.78005C50.3869 8.46569 50.1327 8.21151 49.8184 8.21151C49.5062 8.21151 49.2521 8.46569 49.2521 8.78005C49.2521 9.09219 49.5062 9.34637 49.8184 9.34637C50.1327 9.34637 50.3869 9.09219 50.3869 8.78005Z" fill="white"></path><path d="M48.5269 10.8212H51.1121C51.0998 10.1152 50.5267 9.54702 49.8183 9.54702C49.1123 9.54702 48.5392 10.1152 48.5269 10.8212Z" fill="white"></path><path d="M44.9277 8.30801L44.6256 8.92004C44.5988 8.97435 44.547 9.01199 44.4871 9.0207L43.8117 9.11884C43.6607 9.14077 43.6005 9.32624 43.7097 9.43269L44.1984 9.90909C44.2418 9.95136 44.2616 10.0123 44.2513 10.072L44.136 10.7446C44.1102 10.895 44.268 11.0096 44.4029 10.9386L45.007 10.621C45.0606 10.5928 45.1247 10.5928 45.1783 10.621L45.7824 10.9386C45.9174 11.0096 46.0752 10.895 46.0494 10.7446L45.934 10.072C45.9238 10.0123 45.9436 9.95136 45.9869 9.90909L46.4757 9.43269C46.5849 9.32624 46.5246 9.14077 46.3737 9.11884L45.6983 9.0207C45.6383 9.01199 45.5865 8.97435 45.5597 8.92004L45.2577 8.30801C45.1902 8.17126 44.9952 8.17126 44.9277 8.30801Z" fill="#FEB630"></path><path d="M41.5178 8.30801L41.2157 8.92004C41.1889 8.97435 41.1371 9.01199 41.0772 9.0207L40.4018 9.11884C40.2509 9.14077 40.1906 9.32624 40.2998 9.43269L40.7885 9.90909C40.8319 9.95136 40.8517 10.0123 40.8414 10.072L40.7261 10.7446C40.7003 10.895 40.8581 11.0096 40.993 10.9386L41.5972 10.621C41.6508 10.5928 41.7148 10.5928 41.7684 10.621L42.3725 10.9386C42.5075 11.0096 42.6653 10.895 42.6395 10.7446L42.5241 10.072C42.5139 10.0123 42.5337 9.95136 42.577 9.90909L43.0658 9.43269C43.175 9.32624 43.1147 9.14077 42.9638 9.11884L42.2884 9.0207C42.2284 9.01199 42.1766 8.97435 42.1498 8.92004L41.8478 8.30801C41.7803 8.17126 41.5853 8.17126 41.5178 8.30801Z" fill="#FEB630"></path><path d="M38.1079 8.30801L37.8058 8.92004C37.779 8.97435 37.7272 9.01199 37.6673 9.0207L36.9919 9.11884C36.841 9.14077 36.7807 9.32624 36.8899 9.43269L37.3786 9.90909C37.422 9.95136 37.4418 10.0123 37.4316 10.072L37.3162 10.7446C37.2904 10.895 37.4482 11.0096 37.5832 10.9386L38.1873 10.621C38.2409 10.5928 38.3049 10.5928 38.3585 10.621L38.9626 10.9386C39.0976 11.0096 39.2554 10.895 39.2296 10.7446L39.1142 10.072C39.104 10.0123 39.1238 9.95136 39.1671 9.90909L39.6559 9.43269C39.7651 9.32624 39.7048 9.14077 39.5539 9.11884L38.8785 9.0207C38.8186 9.01199 38.7668 8.97435 38.7399 8.92004L38.4379 8.30801C38.3704 8.17126 38.1754 8.17126 38.1079 8.30801Z" fill="#FEB630"></path><path d="M31.8024 21.5437V27.004C31.8024 27.2965 32.0386 27.5344 32.3329 27.5344H37.3916L39.1935 28.2538C39.3352 28.3101 39.4914 28.2047 39.4914 28.0521V27.5344H40.2634C40.5559 27.5344 40.7939 27.2965 40.7939 27.004V21.5437C40.7939 21.2513 40.5559 21.0133 40.2634 21.0133H32.3329C32.0386 21.0133 31.8024 21.2513 31.8024 21.5437Z" fill="#F24E66"></path><path d="M38.3789 23.6936C38.3789 24.7878 36.3881 26.3612 36.3881 26.3612C36.3881 26.3612 34.395 24.7878 34.395 23.6936C34.395 22.9611 34.9905 22.3656 35.723 22.3656C35.9657 22.3656 36.1926 22.4308 36.3881 22.5431C36.5836 22.4308 36.8105 22.3656 37.051 22.3656C37.7835 22.3656 38.3789 22.9611 38.3789 23.6936Z" fill="white"></path></svg>